<svg width="26" height="29" viewBox="0 0 26 29" fill="none" xmlns="http://www.w3.org/2000/svg">
<path d="M5.12335 7.60599C5.55268 7.14868 5.78385 6.86825 5.78385 6.66117C5.78385 6.54037 5.70542 6.42388 5.62698 6.34191C5.52791 6.26425 5.40406 6.22111 5.28022 6.22111C4.92932 6.22111 4.41743 6.60077 3.80234 7.32988C2.08915 9.37053 1.21398 11.3465 1.25114 14.2586C1.28829 17.1707 1.96943 19.302 3.48034 21.2391C4.25643 22.2573 4.85089 22.7836 5.27609 22.7836C5.40819 22.7707 5.52791 22.7146 5.62285 22.6197C5.70129 22.4989 5.77973 22.3781 5.77973 22.2573C5.77973 22.0157 5.61873 21.7309 5.23481 21.3685C3.39778 19.5436 2.45656 17.1837 2.4483 14.25C2.44004 11.601 3.33998 9.40073 5.12335 7.60599ZM14.8658 21.6058L14.8741 21.6015C14.8658 21.6058 14.8617 21.6101 14.8658 21.6058ZM14.9938 14.7806C14.325 14.5994 17.0744 11.2041 12.1825 7.13574C12.1825 7.13574 12.8224 9.26699 9.59002 14.0213C6.52279 18.5254 10.5601 21.2995 10.9936 21.5799C10.717 21.3944 9.03684 20.0397 11.3899 16.0318C11.844 15.2423 12.4426 14.5261 13.1856 12.9169C13.1856 12.9169 13.842 13.8833 13.4994 15.9843C12.9834 19.1596 15.7203 18.2493 15.7616 18.2925C16.7028 19.4487 15.0309 21.4635 14.8699 21.5972C15.097 21.4376 19.7288 18.2321 16.2322 13.482C15.9845 13.7409 15.6625 14.9575 14.9938 14.7806ZM22.1974 7.32557C21.5823 6.59645 21.0663 6.2168 20.7154 6.2168C20.5916 6.22111 20.4718 6.26425 20.3686 6.3376C20.2902 6.41957 20.2118 6.54037 20.2118 6.65685C20.2118 6.86394 20.4429 7.14437 20.8723 7.60168C22.6556 9.39642 23.5556 11.5967 23.5473 14.25C23.5391 17.1837 22.5978 19.5393 20.7608 21.3685C20.3769 21.7309 20.2159 22.0114 20.2159 22.2573C20.2159 22.3738 20.2943 22.4989 20.3728 22.6197C20.4677 22.7146 20.5874 22.775 20.7195 22.7836C21.1447 22.7836 21.7392 22.2616 22.5153 21.2391C24.0262 19.302 24.7073 17.1664 24.7486 14.2543C24.7899 11.3422 23.9106 9.36622 22.1974 7.32557Z" fill="white"/>
<path d="M10.9936 21.5799L11.0307 21.6058M10.9936 21.5799C10.5601 21.2995 6.52279 18.5254 9.59002 14.0213C12.8224 9.26699 12.1825 7.13574 12.1825 7.13574C17.0744 11.2041 14.325 14.5994 14.9938 14.7806C15.6625 14.9575 15.9845 13.7409 16.2322 13.482C19.7288 18.2321 15.097 21.4376 14.8699 21.5972C15.0309 21.4635 16.7028 19.4487 15.7616 18.2925C15.7203 18.2493 12.9834 19.1596 13.4994 15.9843C13.842 13.8833 13.1856 12.9169 13.1856 12.9169C12.4426 14.5261 11.844 15.2423 11.3899 16.0318C9.03684 20.0397 10.717 21.3944 10.9936 21.5799ZM5.12335 7.60599C5.55268 7.14868 5.78385 6.86825 5.78385 6.66117C5.78385 6.54037 5.70542 6.42388 5.62698 6.34191C5.52791 6.26425 5.40406 6.22111 5.28022 6.22111C4.92932 6.22111 4.41743 6.60077 3.80234 7.32988C2.08915 9.37053 1.21398 11.3465 1.25114 14.2586C1.28829 17.1707 1.96943 19.302 3.48034 21.2391C4.25643 22.2573 4.85089 22.7836 5.27609 22.7836C5.40819 22.7707 5.52791 22.7146 5.62285 22.6197C5.70129 22.4989 5.77973 22.3781 5.77973 22.2573C5.77973 22.0157 5.61873 21.7309 5.23481 21.3685C3.39778 19.5436 2.45656 17.1837 2.4483 14.25C2.44004 11.601 3.33998 9.40073 5.12335 7.60599ZM14.8658 21.6058L14.8741 21.6015C14.8658 21.6058 14.8617 21.6101 14.8658 21.6058ZM22.1974 7.32557C21.5823 6.59645 21.0663 6.2168 20.7154 6.2168C20.5916 6.22111 20.4718 6.26425 20.3686 6.3376C20.2902 6.41957 20.2118 6.54037 20.2118 6.65685C20.2118 6.86394 20.4429 7.14437 20.8723 7.60168C22.6556 9.39642 23.5556 11.5967 23.5473 14.25C23.5391 17.1837 22.5978 19.5393 20.7608 21.3685C20.3769 21.7309 20.2159 22.0114 20.2159 22.2573C20.2159 22.3738 20.2943 22.4989 20.3728 22.6197C20.4677 22.7146 20.5874 22.775 20.7195 22.7836C21.1447 22.7836 21.7392 22.2616 22.5153 21.2391C24.0262 19.302 24.7073 17.1664 24.7486 14.2543C24.7899 11.3422 23.9106 9.36622 22.1974 7.32557Z" stroke="white" stroke-width="0.8"/>
</svg>
