<svg width="23" height="23" viewBox="0 0 23 23" fill="none" xmlns="http://www.w3.org/2000/svg">
<g clip-path="url(#clip0_226_169)">
<path fill-rule="evenodd" clip-rule="evenodd" d="M11.2163 0C8.24163 0.000372876 5.38895 1.1822 3.28558 3.28557C1.1822 5.38895 0.000372876 8.24162 0 11.2162C0 16.1691 3.23438 20.3667 7.63735 21.8812C8.1886 21.9501 8.39391 21.6056 8.39391 21.33V19.4034C5.29875 20.0925 4.61109 17.8903 4.61109 17.8903C4.12875 16.5825 3.37219 16.238 3.37219 16.238C2.34 15.5503 3.43969 15.5503 3.43969 15.5503C4.54078 15.6192 5.16094 16.7203 5.16094 16.7203C6.19313 18.4401 7.77516 17.9578 8.39531 17.6836C8.46281 16.927 8.80735 16.4461 9.08297 16.1705C6.60516 15.8948 3.99094 14.9316 3.99094 10.5961C3.99094 9.35859 4.40297 8.3939 5.16094 7.56843C5.09063 7.36171 4.67859 6.19312 5.29875 4.67859C5.29875 4.67859 6.26203 4.40297 8.39391 5.84859C9.28828 5.57296 10.253 5.50406 11.2163 5.50406C12.1795 5.50406 13.1428 5.64187 14.0372 5.84859C16.1705 4.40437 17.1338 4.67859 17.1338 4.67859C17.7525 6.19312 17.3391 7.36171 17.2702 7.63734C18.028 8.46292 18.4459 9.54435 18.4402 10.665C18.4402 15.0005 15.8245 15.8948 13.3495 16.1705C13.7616 16.5136 14.1061 17.2012 14.1061 18.2334V21.33C14.1061 21.6056 14.3114 21.9487 14.8627 21.8812C17.0935 21.1293 19.0313 19.6948 20.4019 17.7809C21.7725 15.8669 22.5065 13.5703 22.5 11.2162C22.4311 5.02312 17.4094 0 11.2163 0Z" fill="white"/>
</g>
<defs>
<clipPath id="clip0_226_169">
<rect width="22.5" height="22.5" fill="white"/>
</clipPath>
</defs>
</svg>
