<svg width="25" height="25" viewBox="0 0 25 25" fill="none" xmlns="http://www.w3.org/2000/svg">
<path d="M13.2994 2.0415C14.4478 2.04457 15.0307 2.05069 15.534 2.06498L15.732 2.07213C15.9607 2.0803 16.1863 2.0905 16.4589 2.10275C17.545 2.1538 18.2862 2.3253 18.9364 2.57744C19.6102 2.83673 20.1778 3.1879 20.7454 3.75446C21.2646 4.2646 21.6663 4.88194 21.9224 5.56337C22.1745 6.21364 22.346 6.95477 22.3971 8.04196C22.4093 8.3135 22.4195 8.5391 22.4277 8.76879L22.4338 8.96683C22.4491 9.46908 22.4552 10.052 22.4573 11.2004L22.4583 11.962V13.2992C22.4608 14.0438 22.453 14.7884 22.4348 15.5328L22.4287 15.7309C22.4205 15.9606 22.4103 16.1862 22.3981 16.4577C22.347 17.5449 22.1735 18.285 21.9224 18.9363C21.6663 19.6177 21.2646 20.235 20.7454 20.7452C20.2352 21.2645 19.6179 21.6662 18.9364 21.9222C18.2862 22.1744 17.545 22.3459 16.4589 22.3969L15.732 22.4275L15.534 22.4336C15.0307 22.4479 14.4478 22.4551 13.2994 22.4571L12.5379 22.4581H11.2016C10.4566 22.4608 9.71171 22.4529 8.96699 22.4347L8.76895 22.4285C8.52661 22.4194 8.28433 22.4088 8.04211 22.3969C6.95595 22.3459 6.21482 22.1744 5.56353 21.9222C4.88246 21.666 4.26548 21.2644 3.75564 20.7452C3.23598 20.2351 2.83393 19.6178 2.57759 18.9363C2.32545 18.286 2.15395 17.5449 2.10291 16.4577L2.07228 15.7309L2.06718 15.5328C2.04836 14.7884 2.03985 14.0438 2.04166 13.2992V11.2004C2.03883 10.4558 2.04632 9.71122 2.06412 8.96683L2.07126 8.76879C2.07943 8.5391 2.08964 8.3135 2.10189 8.04196C2.15293 6.95477 2.32443 6.21467 2.57657 5.56337C2.83351 4.88166 3.23626 4.2643 3.75666 3.75446C4.26621 3.23542 4.88283 2.83374 5.56353 2.57744C6.21482 2.3253 6.95493 2.1538 8.04211 2.10275C8.31365 2.0905 8.54028 2.0803 8.76895 2.07213L8.96699 2.066C9.71137 2.04787 10.456 2.04004 11.2006 2.04252L13.2994 2.0415ZM12.25 7.14566C10.8963 7.14566 9.59801 7.68342 8.6408 8.64064C7.68358 9.59785 7.14582 10.8961 7.14582 12.2498C7.14582 13.6035 7.68358 14.9018 8.6408 15.859C9.59801 16.8162 10.8963 17.354 12.25 17.354C13.6037 17.354 14.902 16.8162 15.8592 15.859C16.8164 14.9018 17.3541 13.6035 17.3541 12.2498C17.3541 10.8961 16.8164 9.59785 15.8592 8.64064C14.902 7.68342 13.6037 7.14566 12.25 7.14566ZM12.25 9.18733C12.6522 9.18726 13.0504 9.26641 13.422 9.42025C13.7936 9.5741 14.1312 9.79962 14.4156 10.084C14.7001 10.3683 14.9257 10.7059 15.0797 11.0774C15.2336 11.4489 15.3129 11.8471 15.313 12.2493C15.3131 12.6515 15.2339 13.0497 15.0801 13.4213C14.9262 13.7929 14.7007 14.1306 14.4164 14.415C14.132 14.6994 13.7945 14.925 13.4229 15.079C13.0514 15.233 12.6532 15.3123 12.251 15.3123C11.4388 15.3123 10.6598 14.9897 10.0855 14.4153C9.51116 13.841 9.18851 13.062 9.18851 12.2498C9.18851 11.4376 9.51116 10.6586 10.0855 10.0843C10.6598 9.50998 11.4388 9.18733 12.251 9.18733M17.6104 5.61442C17.2719 5.61442 16.9474 5.74886 16.7081 5.98816C16.4688 6.22746 16.3343 6.55203 16.3343 6.89046C16.3343 7.22888 16.4688 7.55345 16.7081 7.79275C16.9474 8.03206 17.2719 8.1665 17.6104 8.1665C17.9488 8.1665 18.2734 8.03206 18.5127 7.79275C18.752 7.55345 18.8864 7.22888 18.8864 6.89046C18.8864 6.55203 18.752 6.22746 18.5127 5.98816C18.2734 5.74886 17.9488 5.61442 17.6104 5.61442Z" fill="white"/>
</svg>
