<svg width="26" height="26" viewBox="0 0 26 26" fill="none" xmlns="http://www.w3.org/2000/svg">
<path d="M20.9734 3.64014H5.02192C4.25908 3.64014 3.64001 4.24464 3.64001 4.98902V21.0094C3.64001 21.7549 4.25908 22.3601 5.02192 22.3601H20.9734C21.7368 22.3601 22.36 21.7549 22.36 21.0094V4.98902C22.36 4.24464 21.7368 3.64014 20.9734 3.64014ZM9.19206 19.5922H6.41422V10.6588H9.19206V19.5922ZM7.80314 9.43736C7.5917 9.43736 7.38233 9.3957 7.18701 9.31475C6.99168 9.23381 6.81421 9.11517 6.66475 8.96561C6.51529 8.81605 6.39676 8.63851 6.31595 8.44313C6.23513 8.24775 6.1936 8.03836 6.19374 7.82692C6.19374 7.40011 6.36328 6.99079 6.66508 6.68899C6.96688 6.3872 7.3762 6.21765 7.80301 6.21765C8.22981 6.21765 8.63914 6.3872 8.94093 6.68899C9.24273 6.99079 9.41228 7.40011 9.41228 7.82692C9.41228 8.25381 9.24278 8.66323 8.94105 8.96521C8.63931 9.26719 8.23003 9.43701 7.80314 9.43736ZM19.591 19.5922H16.8176V15.2481C16.8176 14.2117 16.7973 12.8792 15.3743 12.8792C13.9293 12.8792 13.709 14.0079 13.709 15.173V19.5924H10.9335V10.6588H13.5972V11.8788H13.6352C14.006 11.1768 14.9118 10.436 16.2628 10.436C19.0723 10.436 19.5913 12.2857 19.5913 14.692L19.591 19.5922Z" fill="white"/>
</svg>
